{
  "materials": [
    {
      "name": "01_-_Default_alpha",
      "pbrMetallicRoughness": {
        "baseColorFactor": [
          0.5882353,
          0.5882353,
          0.5882353,
          0.0
        ],
        "metallicFactor": 0.099999994,
        "roughnessFactor": 1
      },
      "alphaMode": "BLEND"
    }
  ],
  "images": [],
  "textures": [],
  "meshes": [
    {
      "name": "Box001",
      "primitives": [
        {
          "material": 0,
          "mode": 4,
          "indices": 0,
          "attributes": {
            "NORMAL": 2,
            "POSITION": 1,
            "TEXCOORD_0": 3
          }
        }
      ]
    }
  ],
  "buffers": [
    {
      "byteLength": 1559,
      "uri": "KO9POYE6IY8DWM1U8RQ72KMODUOF1IX8N.bin"
    }
  ],
  "bufferViews": [
    {
      "buffer": 0,
      "target": 34963,
      "byteLength": 70,
      "byteOffset": 0
    },
    {
      "buffer": 0,
      "target": 34962,
      "byteLength": 48,
      "byteOffset": 192
    },
    {
      "buffer": 0,
      "target": 34962,
      "byteLength": 492,
      "byteOffset": 240
    },
    {
      "buffer": 0,
      "target": 34962,
      "byteLength": 128,
      "byteOffset": 640
    }
  ],
  "accessors": [
    {
      "componentType": 5123,
      "type": "SCALAR",
      "bufferView": 0,
      "byteOffset": 0,
      "byteType": 1518,
      "count": 35
    },
    {
      "componentType": 5126,
      "type": "VEC3",
      "bufferView": 1,
      "byteOffset": 0,
      "byteType": 977,
      "count": 4,
      "min": [
        -1.0,
        -0.0500000007450581,
        0.0
      ],
      "max": [
        1.0,
        0.0500000007450581,
        1.0
      ]
    },
    {
      "componentType": 5126,
      "type": "VEC3",
      "bufferView": 2,
      "byteOffset": 0,
      "byteType": 1705,
      "count": 41
    },
    {
      "componentType": 5126,
      "type": "VEC2",
      "bufferView": 3,
      "byteOffset": 0,
      "byteType": 1992,
      "count": 16
    }
  ],
  "nodes": [
    {
      "name": "RootNode",
      "translation": [
        0.0,
        0.0,
        0.0
      ],
      "rotation": [
        0.0,
        0.0,
        0.0,
        1.0
      ],
      "scale": [
        1.0,
        1.0,
        1.0
      ],
      "children": [
        1
      ]
    },
    {
      "name": "Box001",
      "translation": [
        0.0,
        0.0,
        0.0
      ],
      "rotation": [
        -0.70710676908493,
        0.0,
        0.0,
        0.70710676908493
      ],
      "scale": [
        1.0,
        1.0,
        1.0
      ],
      "mesh": 0
    }
  ],
  "asset": {
    "generator": "FBX2glTF",
    "version": "2.0"
  },
  "scene": 0,
  "scenes": [
    {
      "name": "Root Scene",
      "nodes": [
        0
      ]
    }
  ],
  "samplers": [
    {}
  ]
}
