{"materials":[{"name":"Window_Basecolor_alpha","pbrMetallicRoughness":{"baseColorFactor":[0.203921571,0.203921571,0.203921571,0.9],"metallicFactor":0.099999994,"roughnessFactor":0.0},"alphaMode":"BLEND"},{"name":"Light_Basecolor","pbrMetallicRoughness":{"baseColorTexture":{"index":0,"texCoord":0},"baseColorFactor":[1.0,1.0,1.0,1.0],"metallicFactor":0.099999994,"roughnessFactor":0.0},"alphaMode":"OPAQUE","emissiveFactor":[0.2,0.2,0.2,1.0]},{"name":"Tyre01_Basecolor","pbrMetallicRoughness":{"baseColorTexture":{"index":1,"texCoord":0},"baseColorFactor":[1.0,1.0,1.0,1.0],"metallicFactor":0.099999994,"roughnessFactor":0.0},"alphaMode":"OPAQUE"},{"name":"Tyre02_Basecolor","pbrMetallicRoughness":{"baseColorTexture":{"index":2,"texCoord":0},"baseColorFactor":[1.0,1.0,1.0,1.0],"metallicFactor":0.099999994,"roughnessFactor":0.8},"alphaMode":"OPAQUE"},{"name":"Body_Basecolor","pbrMetallicRoughness":{"baseColorTexture":{"index":3,"texCoord":0},"baseColorFactor":[1.0,1.0,1.0,1.0],"metallicFactor":0.099999994,"roughnessFactor":0.6},"alphaMode":"OPAQUE"}],"images":[{"uri":"2MFDN2862GHZVRHHN1TOPU5EZ0O11UOO8.jpg"},{"uri":"7E74IRZWCHE92IO71NO3TVC3USIADSRTT.jpg"},{"uri":"I584K4F71OE46PA6KIHWY85ZD74JNN28Z.jpg"},{"uri":"VMT6U41T1TH80NEANW2W6NCE2U4U82Y8Z.jpg"}],"textures":[{"name":"smd_1_f_png.jpg","sampler":0,"source":0},{"name":"smd_2_f_png.jpg","sampler":0,"source":1},{"name":"smd_3_f_png.jpg","sampler":0,"source":2},{"name":"smd_4_f_png.jpg","sampler":0,"source":3}],"meshes":[{"name":"车_窗户","primitives":[{"material":0,"mode":4,"indices":4,"attributes":{"COLOR_0":7,"NORMAL":6,"POSITION":5,"TEXCOORD_0":8}}]},{"name":"车_灯","primitives":[{"material":1,"mode":4,"indices":9,"attributes":{"COLOR_0":12,"NORMAL":11,"POSITION":10,"TEXCOORD_0":13}}]},{"name":"车_轮1","primitives":[{"material":2,"mode":4,"indices":14,"attributes":{"NORMAL":16,"POSITION":15,"TEXCOORD_0":17}},{"material":3,"mode":4,"indices":18,"attributes":{"NORMAL":20,"POSITION":19,"TEXCOORD_0":21}}]},{"name":"车_主体","primitives":[{"material":4,"mode":4,"indices":22,"attributes":{"COLOR_0":25,"NORMAL":24,"POSITION":23,"TEXCOORD_0":26}}]}],"buffers":[{"byteLength":343287,"uri":"W21D1DE2SGTZWG720HXZ6KIFZ0PAUQGAU.bin"}],"bufferViews":[{"buffer":0,"byteLength":200,"byteOffset":0},{"buffer":0,"byteLength":156,"byteOffset":356},{"buffer":0,"byteLength":180,"byteOffset":512},{"buffer":0,"byteLength":264,"byteOffset":792},{"buffer":0,"target":34963,"byteLength":1718,"byteOffset":1056},{"buffer":0,"target":34962,"byteLength":2604,"byteOffset":2856},{"buffer":0,"target":34962,"byteLength":2724,"byteOffset":5460},{"buffer":0,"target":34962,"byteLength":3552,"byteOffset":8208},{"buffer":0,"target":34962,"byteLength":1824,"byteOffset":11760},{"buffer":0,"target":34963,"byteLength":5740,"byteOffset":13568},{"buffer":0,"target":34962,"byteLength":13344,"byteOffset":19308},{"buffer":0,"target":34962,"byteLength":12948,"byteOffset":32664},{"buffer":0,"target":34962,"byteLength":17664,"byteOffset":45612},{"buffer":0,"target":34962,"byteLength":8752,"byteOffset":63164},{"buffer":0,"target":34963,"byteLength":3734,"byteOffset":71916},{"buffer":0,"target":34962,"byteLength":7992,"byteOffset":75732},{"buffer":0,"target":34962,"byteLength":8328,"byteOffset":83724},{"buffer":0,"target":34962,"byteLength":5224,"byteOffset":91980},{"buffer":0,"target":34963,"byteLength":3218,"byteOffset":97204},{"buffer":0,"target":34962,"byteLength":10572,"byteOffset":100564},{"buffer":0,"target":34962,"byteLength":10764,"byteOffset":111136},{"buffer":0,"target":34962,"byteLength":7136,"byteOffset":121900},{"buffer":0,"target":34963,"byteLength":25820,"byteOffset":129036},{"buffer":0,"target":34962,"byteLength":46800,"byteOffset":154908},{"buffer":0,"target":34962,"byteLength":46920,"byteOffset":201708},{"buffer":0,"target":34962,"byteLength":62384,"byteOffset":248664},{"buffer":0,"target":34962,"byteLength":31384,"byteOffset":311048}],"accessors":[{"componentType":5126,"type":"SCALAR","bufferView":0,"byteOffset":0,"byteType":523,"count":50,"min":[0.0],"max":[1.29166662693024]},{"componentType":5126,"type":"VEC3","bufferView":1,"byteOffset":0,"byteType":1983,"count":13},{"componentType":5126,"type":"SCALAR","bufferView":2,"byteOffset":0,"byteType":1027,"count":45,"min":[-0.0416634082794189],"max":[1.33333671092987]},{"componentType":5126,"type":"VEC3","bufferView":3,"byteOffset":0,"byteType":1449,"count":22},{"componentType":5123,"type":"SCALAR","bufferView":4,"byteOffset":0,"byteType":1654,"count":859},{"componentType":5126,"type":"VEC3","bufferView":5,"byteOffset":0,"byteType":619,"count":217,"min":[-0.0264908019453287,-0.033960685133934,0.0152551475912333],"max":[0.0264850798994303,0.0651924759149551,0.0297442656010389]},{"componentType":5126,"type":"VEC3","bufferView":6,"byteOffset":0,"byteType":1281,"count":227},{"componentType":5126,"type":"VEC4","bufferView":7,"byteOffset":0,"byteType":1453,"count":222},{"componentType":5126,"type":"VEC2","bufferView":8,"byteOffset":0,"byteType":1727,"count":228},{"componentType":5123,"type":"SCALAR","bufferView":9,"byteOffset":0,"byteType":1349,"count":2870},{"componentType":5126,"type":"VEC3","bufferView":10,"byteOffset":0,"byteType":1815,"count":1112,"min":[-0.027735473588109,-0.0650369748473167,-0.00934033468365669],"max":[0.0277297496795654,0.0677599906921387,0.0154921822249889]},{"componentType":5126,"type":"VEC3","bufferView":11,"byteOffset":0,"byteType":1973,"count":1079},{"componentType":5126,"type":"VEC4","bufferView":12,"byteOffset":0,"byteType":559,"count":1104},{"componentType":5126,"type":"VEC2","bufferView":13,"byteOffset":0,"byteType":719,"count":1094},{"componentType":5123,"type":"SCALAR","bufferView":14,"byteOffset":0,"byteType":669,"count":1867},{"componentType":5126,"type":"VEC3","bufferView":15,"byteOffset":0,"byteType":1401,"count":666,"min":[-0.108660459518433,-0.26738229393959,-0.272632122039795],"max":[1.65761435031891,2.84533977508545,0.262984484434128]},{"componentType":5126,"type":"VEC3","bufferView":16,"byteOffset":0,"byteType":1141,"count":694},{"componentType":5126,"type":"VEC2","bufferView":17,"byteOffset":0,"byteType":1947,"count":653},{"componentType":5123,"type":"SCALAR","bufferView":18,"byteOffset":0,"byteType":979,"count":1609},{"componentType":5126,"type":"VEC3","bufferView":19,"byteOffset":0,"byteType":1987,"count":881,"min":[-0.115492939949036,-0.343604743480682,-0.349327683448792],"max":[1.66444671154022,2.92155957221985,0.337963551282883]},{"componentType":5126,"type":"VEC3","bufferView":20,"byteOffset":0,"byteType":813,"count":897},{"componentType":5126,"type":"VEC2","bufferView":21,"byteOffset":0,"byteType":841,"count":892},{"componentType":5123,"type":"SCALAR","bufferView":22,"byteOffset":0,"byteType":1582,"count":12910},{"componentType":5126,"type":"VEC3","bufferView":23,"byteOffset":0,"byteType":587,"count":3900,"min":[-0.0347944870591164,-0.0694323480129242,-0.00891145225614309],"max":[0.0347887203097343,0.070650041103363,0.0415252782404423]},{"componentType":5126,"type":"VEC3","bufferView":24,"byteOffset":0,"byteType":307,"count":3910},{"componentType":5126,"type":"VEC4","bufferView":25,"byteOffset":0,"byteType":921,"count":3899},{"componentType":5126,"type":"VEC2","bufferView":26,"byteOffset":0,"byteType":432,"count":3923}],"nodes":[{"name":"RootNode","translation":[0.0,0.0,0.0],"rotation":[0.0,0.0,0.0,1.0],"scale":[1.0,1.0,1.0],"children":[1]},{"name":"Group003","translation":[0.0,0.0,3.63172603101702E-08],"rotation":[-0.70710676908493,0.0,0.0,0.70710676908493],"scale":[1.0,1.0,1.0],"children":[2,3,4,5]},{"name":"车_窗户","translation":[8.7738037109375E-05,-0.0184860229492188,0.465714961290359],"rotation":[0.0,0.0,0.0,1.0],"scale":[30.3613586425781,30.3613586425781,30.3613586425781],"mesh":0},{"name":"车_灯","translation":[8.7738037109375E-05,-0.0184860229492188,0.465714961290359],"rotation":[0.0,0.0,0.0,1.0],"scale":[30.3613586425781,30.3613586425781,30.3613586425781],"mesh":1},{"name":"车_轮1","translation":[0.771446228027344,-1.21797943115234,0.341685235500336],"rotation":[6.12323360118135E-17,1.0,6.12323360118135E-17,7.54979012640433E-08],"scale":[1.0,1.0,1.0],"mesh":2},{"name":"车_主体","translation":[8.7738037109375E-05,-0.0184860229492188,0.465714961290359],"rotation":[0.0,0.0,0.0,1.0],"scale":[30.3613586425781,30.3613586425781,30.3613586425781],"mesh":3}],"animations":[{"name":"_起_","channels":[{"sampler":0,"target":{"node":1,"path":"translation"}}],"samplers":[{"input":0,"interpolation":"LINEAR","output":1}]},{"name":"_落_","channels":[{"sampler":0,"target":{"node":1,"path":"translation"}}],"samplers":[{"input":2,"interpolation":"LINEAR","output":3}]}],"asset":{"generator":"FBX2glTF","version":"2.0"},"scene":0,"scenes":[{"name":"Root Scene","nodes":[0]}],"samplers":[{}]}
